<svg width="1410" height="2526" viewBox="0 0 1410 2526" fill="none" xmlns="http://www.w3.org/2000/svg">
<rect width="732.906" height="676.315" transform="matrix(0.641364 -0.767237 0.641364 0.767237 923.549 440.333)" fill="url(#paint0_linear_789_3073)"/>
<rect y="23.9395" width="1500" height="1451.06" fill="#1B1A1A"/>
<rect y="23.9395" width="1410" height="1451.06" fill="#1B1A1A"/>
<rect width="1077.44" height="676.315" transform="matrix(0.641364 -0.767237 0.641364 0.767237 -413.97 790.777)" fill="url(#paint1_linear_789_3073)"/>
<g filter="url(#filter0_f_789_3073)">
<ellipse cx="140" cy="924.721" rx="320" ry="382.802" fill="#C50248"/>
</g>
<rect width="1755.29" height="1101.81" transform="matrix(0.409222 0.912435 0.378031 -0.925793 -475.938 1242.28)" fill="url(#paint2_linear_789_3073)"/>
<rect width="1194.01" height="1101.81" transform="matrix(0.409222 0.912435 0.378031 -0.925793 872.993 1903.53)" fill="url(#paint3_linear_789_3073)"/>
<rect width="1500" height="2832.34" transform="matrix(0.999856 -0.0169655 -0.0169655 -0.999856 -36.6335 2731.84)" fill="#1B1A1A"/>
<rect width="1410" height="2832.34" transform="matrix(0.999856 -0.0169655 -0.0169655 -0.999856 -36.6335 2731.84)" fill="#1B1A1A"/>
<g filter="url(#filter1_f_789_3073)">
<ellipse cx="320" cy="747.197" rx="320" ry="747.197" transform="matrix(0.999856 -0.0169655 -0.0169655 -0.999856 -233.761 1723.99)" fill="#C50248"/>
</g>
<rect width="1242.85" height="780.148" transform="matrix(0.604837 0.796349 -0.721354 0.692567 1559.17 1025.81)" fill="url(#paint4_linear_789_3073)"/>
<g filter="url(#filter2_f_789_3073)">
<ellipse cx="1367.59" cy="1757.1" rx="429.773" ry="382.802" transform="rotate(94.4746 1367.59 1757.1)" fill="#C50248"/>
</g>
<defs>
<filter id="filter0_f_789_3073" x="-530" y="191.919" width="1340" height="1465.6" filterUnits="userSpaceOnUse" color-interpolation-filters="sRGB">
<feFlood flood-opacity="0" result="BackgroundImageFix"/>
<feBlend mode="normal" in="SourceGraphic" in2="BackgroundImageFix" result="shape"/>
<feGaussianBlur stdDeviation="175" result="effect1_foregroundBlur_789_3073"/>
</filter>
<filter id="filter1_f_789_3073" x="-596.693" y="-125.639" width="1340.42" height="2194.22" filterUnits="userSpaceOnUse" color-interpolation-filters="sRGB">
<feFlood flood-opacity="0" result="BackgroundImageFix"/>
<feBlend mode="normal" in="SourceGraphic" in2="BackgroundImageFix" result="shape"/>
<feGaussianBlur stdDeviation="175" result="effect1_foregroundBlur_789_3073"/>
</filter>
<filter id="filter2_f_789_3073" x="634.459" y="977.576" width="1466.26" height="1559.04" filterUnits="userSpaceOnUse" color-interpolation-filters="sRGB">
<feFlood flood-opacity="0" result="BackgroundImageFix"/>
<feBlend mode="normal" in="SourceGraphic" in2="BackgroundImageFix" result="shape"/>
<feGaussianBlur stdDeviation="175" result="effect1_foregroundBlur_789_3073"/>
</filter>
<linearGradient id="paint0_linear_789_3073" x1="285.744" y1="683.209" x2="749.796" y2="-67.035" gradientUnits="userSpaceOnUse">
<stop offset="0.365644" stop-color="#1D1D1D"/>
<stop offset="1" stop-color="#A1083F"/>
</linearGradient>
<linearGradient id="paint1_linear_789_3073" x1="331.699" y1="730.802" x2="789.479" y2="-276.65" gradientUnits="userSpaceOnUse">
<stop offset="0.291667" stop-color="#1D1D1D"/>
<stop offset="1" stop-color="#A1083F"/>
</linearGradient>
<linearGradient id="paint2_linear_789_3073" x1="540.384" y1="1190.58" x2="1286.17" y2="-450.701" gradientUnits="userSpaceOnUse">
<stop offset="0.291667" stop-color="#1D1D1D"/>
<stop offset="1" stop-color="#A1083F"/>
</linearGradient>
<linearGradient id="paint3_linear_789_3073" x1="465.516" y1="1113.04" x2="1221.52" y2="-109.209" gradientUnits="userSpaceOnUse">
<stop offset="0.365644" stop-color="#1D1D1D"/>
<stop offset="1" stop-color="#A1083F"/>
</linearGradient>
<linearGradient id="paint4_linear_789_3073" x1="382.624" y1="842.999" x2="910.685" y2="-319.123" gradientUnits="userSpaceOnUse">
<stop offset="0.291667" stop-color="#1D1D1D"/>
<stop offset="1" stop-color="#A1083F"/>
</linearGradient>
</defs>
</svg>
